<mxfile host="app.diagrams.net" modified="2023-04-21T23:41:19.510Z" agent="Mozilla/5.0 (Windows NT 10.0; Win64; x64) AppleWebKit/537.36 (KHTML, like Gecko) Chrome/106.0.0.0 Safari/537.36" etag="JcTAd6SWhCahEFQgPCDv" version="21.1.8" type="device">
  <diagram name="Страница 1" id="s08lgXEeFwChDGYr4rBK">
    <mxGraphModel dx="1674" dy="774" grid="1" gridSize="10" guides="1" tooltips="1" connect="1" arrows="1" fold="1" page="1" pageScale="1" pageWidth="827" pageHeight="1169" math="0" shadow="0">
      <root>
        <mxCell id="0" />
        <mxCell id="1" parent="0" />
        <mxCell id="sf68ZA4tfbFV9sNjzVTf-3" value="" style="edgeStyle=orthogonalEdgeStyle;rounded=0;orthogonalLoop=1;jettySize=auto;html=1;" edge="1" parent="1" source="sf68ZA4tfbFV9sNjzVTf-1" target="sf68ZA4tfbFV9sNjzVTf-2">
          <mxGeometry relative="1" as="geometry" />
        </mxCell>
        <mxCell id="sf68ZA4tfbFV9sNjzVTf-1" value="JSON" style="rounded=0;whiteSpace=wrap;html=1;" vertex="1" parent="1">
          <mxGeometry x="40" y="80" width="120" height="60" as="geometry" />
        </mxCell>
        <mxCell id="sf68ZA4tfbFV9sNjzVTf-5" value="" style="edgeStyle=orthogonalEdgeStyle;rounded=0;orthogonalLoop=1;jettySize=auto;html=1;" edge="1" parent="1" source="sf68ZA4tfbFV9sNjzVTf-2" target="sf68ZA4tfbFV9sNjzVTf-4">
          <mxGeometry relative="1" as="geometry" />
        </mxCell>
        <mxCell id="sf68ZA4tfbFV9sNjzVTf-2" value="STRUCT" style="rounded=0;whiteSpace=wrap;html=1;" vertex="1" parent="1">
          <mxGeometry x="240" y="80" width="120" height="60" as="geometry" />
        </mxCell>
        <mxCell id="sf68ZA4tfbFV9sNjzVTf-4" value="DOM" style="rounded=0;whiteSpace=wrap;html=1;" vertex="1" parent="1">
          <mxGeometry x="440" y="80" width="120" height="60" as="geometry" />
        </mxCell>
        <mxCell id="sf68ZA4tfbFV9sNjzVTf-8" value="" style="edgeStyle=orthogonalEdgeStyle;rounded=0;orthogonalLoop=1;jettySize=auto;html=1;" edge="1" parent="1" source="sf68ZA4tfbFV9sNjzVTf-6" target="sf68ZA4tfbFV9sNjzVTf-7">
          <mxGeometry relative="1" as="geometry" />
        </mxCell>
        <mxCell id="sf68ZA4tfbFV9sNjzVTf-6" value="DOM" style="rounded=0;whiteSpace=wrap;html=1;" vertex="1" parent="1">
          <mxGeometry x="440" y="200" width="120" height="60" as="geometry" />
        </mxCell>
        <mxCell id="sf68ZA4tfbFV9sNjzVTf-10" value="" style="edgeStyle=orthogonalEdgeStyle;rounded=0;orthogonalLoop=1;jettySize=auto;html=1;" edge="1" parent="1" source="sf68ZA4tfbFV9sNjzVTf-7" target="sf68ZA4tfbFV9sNjzVTf-9">
          <mxGeometry relative="1" as="geometry" />
        </mxCell>
        <mxCell id="sf68ZA4tfbFV9sNjzVTf-7" value="STRUCT" style="rounded=0;whiteSpace=wrap;html=1;" vertex="1" parent="1">
          <mxGeometry x="240" y="200" width="120" height="60" as="geometry" />
        </mxCell>
        <mxCell id="sf68ZA4tfbFV9sNjzVTf-9" value="JSON" style="rounded=0;whiteSpace=wrap;html=1;" vertex="1" parent="1">
          <mxGeometry x="40" y="200" width="120" height="60" as="geometry" />
        </mxCell>
      </root>
    </mxGraphModel>
  </diagram>
</mxfile>
